PathFileType	4	(X/Y/Z)	Patient4_TMGait_0pt7_02_right_47.trc.trc
DataRate	CameraRate	NumFrames	NumMarkers	Units	OrigDataRate	OrigDataStartFrame	OrigNumFrames
90.322580645161	90.322580645161	6	33	mm	90.322580645161	53	       141
Frame#	Time	Sacral			L.Shoulder			Chest			R.Shoulder			Neck			R.ASIS			L.ASIS			R.Thigh.Superior			R.Thigh.Lateral			R.Thigh.Inferior			R.Patella			L.Thigh.Superior			L.Thigh.Lateral			L.Thigh.Inferior			L.Patella			L.Shank.Superior			L.Shank.Lateral			L.Shank.Inferior			R.Shank.Superior			R.Shank.Lateral			R.Shank.Inferior			R.Heel			R.Midfoot.Superior			R.Midfoot.Lateral			R.Toe			L.Heel			L.Midfoot.Lateral			L.Midfoot.Superior			L.Toe			L.Elbow			L.Wrist			R.Elbow			R.Wrist			
		X1	Y1	Z1	X2	Y2	Z2	X3	Y3	Z3	X4	Y4	Z4	X5	Y5	Z5	X6	Y6	Z6	X7	Y7	Z7	X8	Y8	Z8	X9	Y9	Z9	X10	Y10	Z10	X11	Y11	Z11	X12	Y12	Z12	X13	Y13	Z13	X14	Y14	Z14	X15	Y15	Z15	X16	Y16	Z16	X17	Y17	Z17	X18	Y18	Z18	X19	Y19	Z19	X20	Y20	Z20	X21	Y21	Z21	X22	Y22	Z22	X23	Y23	Z23	X24	Y24	Z24	X25	Y25	Z25	X26	Y26	Z26	X27	Y27	Z27	X28	Y28	Z28	X29	Y29	Z29	X30	Y30	Z30	X31	Y31	Z31	X32	Y32	Z32	X33	Y33	Z33	

53	53.815714285714	729.982101187461	1018.059819327258	526.169582570059	926.061550496236	1422.836859970322	312.726960154509	1040.162955803181	1348.643493783828	465.438775730608	984.235009423049	1438.476436003064	642.549001366306	951.625650105877	1487.849712562332	462.829463815286	958.764721904814	941.485368192482	633.006239371821	929.628114307716	955.705833046854	359.139842836312	987.638344945878	737.590301450551	607.569837736076	898.321774227379	634.524565711061	665.908106985027	970.816333544517	578.314525337715	584.631094172399	965.363356807042	491.544068458843	589.424804832352	1024.420018683358	801.978798006950	401.380430677724	1005.867103403658	674.431080113071	314.392487295945	1113.568507216250	624.000914342907	383.110248333474	1139.782832164271	534.676217699557	373.644674768386	1078.112773878195	461.269728348874	361.784944014693	941.019244349021	409.713240027013	309.402361960593	938.749249027694	277.791503859128	358.716882120875	936.163548417841	404.703194939414	596.688045054732	862.067426816455	301.618795570509	656.087033897127	904.280678514570	206.700638950470	591.641379489216	768.790497643084	42.747888258482	555.072451805661	939.115805745358	97.224230388431	598.331494161593	849.356645045187	36.518901563433	632.832521695423	1057.963451915789	44.143840259261	630.234183848373	754.936024855298	206.574274448502	392.020063492139	812.753521855905	157.551603959057	314.075003898638	917.300910626299	166.850314944189	335.361646528993	995.181751613024	53.968629534654	312.405625111919	850.736830503955	1070.389061106773	228.524759808950	989.820791421037	848.212588442712	231.197461153431	932.383676225667	1095.721436855186	774.211147499805	1090.047126872507	888.578315837752	750.179218816679	
54	53.826785714286	729.374122790844	1018.022256308890	527.565392441136	924.605996292903	1422.432993307869	313.222132327465	1039.376936787299	1348.470289471331	465.493412607566	984.343798785563	1438.363614631214	642.847416849345	950.801436233916	1487.700207604413	463.264592920747	958.249497675053	941.222851683295	633.089645800518	927.865256742766	955.573354640020	359.415741554040	984.962024696904	736.811316761671	607.073667994630	895.320494018923	634.302242345309	666.205208839727	966.779754502086	577.443027892124	584.624716673285	960.463735010403	490.828746993619	589.528194168626	1023.986489253351	804.573671518302	401.575864988133	1007.663945288505	676.984588695760	314.006632861333	1116.066909737720	628.276593216072	382.541639250252	1144.216199055546	539.926045199331	372.580968018127	1085.453570716630	464.829775157196	360.908501879088	950.494591782312	406.870709890653	309.581001897026	955.100515957439	274.818468617292	358.667892064670	930.786186648741	404.188236413008	596.795689570416	856.121767365925	301.533250455458	656.228845116944	897.474412848996	206.378857828931	591.645587474230	761.039674433831	42.816712455838	555.128941179760	931.284961594044	97.003501097106	598.189776173326	841.589708954080	36.571338918251	632.986690877664	1050.200545398166	43.869858661145	630.306770272880	775.260079771607	193.865969486710	393.509690708521	834.910675629839	148.565435061631	314.647951236263	939.120522078366	163.437565043719	335.056740980713	1022.931071076827	55.113318174669	310.544549889852	846.613852207107	1069.794313383145	231.283366709278	966.572533374406	836.469531986037	232.827829176819	943.676013963645	1094.046223556092	774.407376983542	1115.802263302312	900.018789478894	745.917353901214	
55	53.837857142857	728.820703691370	1017.885142635898	528.732604990724	923.279994179532	1422.007982621780	313.661472421267	1038.651926147649	1348.229141757037	465.516939643834	984.423685052797	1438.141862356941	643.109850819280	950.008447973831	1487.490620995193	463.687745843911	957.760204633234	940.903046655155	633.060059620465	926.341048986514	955.370220761795	359.515863978106	982.296314783112	736.010463694824	606.449529229789	892.335944365078	634.052185004291	666.416078966837	962.768106767166	576.541121242020	584.577110673679	955.587663847056	490.096040555451	589.610120401394	1023.380912167616	806.612124714045	401.572046081631	1008.955321205872	678.981533767000	313.556463928663	1117.889315778363	631.785971138073	381.923538445893	1147.778536656584	544.546429713895	371.533913660875	1092.130811646220	467.937903862300	360.021995109494	959.949587941892	403.348981430604	309.438281612701	971.635776541775	271.527838481350	358.391508261519	925.425721986229	403.644341544846	596.858321028758	850.184410782919	301.440589746489	656.329702685986	890.676065716677	206.050801505730	591.633353571195	753.303246717710	42.897717992048	555.194639816497	923.469170656027	96.789201599425	598.050570080560	833.823880979391	36.631941899857	633.138407203558	1042.438519122739	43.576625281920	630.380350866004	796.457015761893	180.695158505168	394.385499573531	857.973591031695	139.332715715066	314.772358782725	961.432071955356	159.900426844162	334.569302830184	1051.123017807401	56.554880326037	308.720447105720	842.483347008172	1069.406722733185	233.510747507523	943.050540433692	826.973122241016	234.617722822567	955.253466376392	1092.722215407071	774.487952970651	1140.864213999012	913.208670719071	741.053642364054	
56	53.848928571429	728.320679191851	1017.669838952045	529.649426341103	922.092682182719	1421.583179963580	314.034838151935	1037.996771544888	1347.930615366170	465.495640089698	984.488714365445	1437.821876263603	643.324033318500	949.268039109169	1487.231001814590	464.086548723054	957.316721908459	940.554060252867	632.949283426542	925.071421311090	955.082219961774	359.464228712042	979.677207896789	735.194473877172	605.766847043574	889.334313631770	633.782860481496	666.550784072753	958.769717816528	575.613479299786	584.524637923661	950.712337507236	489.352990059097	589.681610245420	1022.623593049419	808.062199605149	401.406230349777	1009.733953650737	680.377077829260	313.071093922186	1119.027872320042	634.451893200063	381.294438208299	1150.456438437156	548.465061151814	370.578664964952	1098.099832040100	470.561493659282	359.205708952727	969.425124435725	399.220704646709	308.935325695378	988.255024214338	268.043859781816	357.919975994679	920.059538532184	403.078332057048	596.878098340212	844.233458131297	301.347726013850	656.394045610270	883.876819589687	205.724779358081	591.607165728027	745.575151995309	42.989853840648	555.268165438355	915.671409652356	96.592166629697	597.924831934638	826.056971079364	36.697321968090	633.276957719209	1034.675913069075	43.275321556615	630.455561096957	818.417640500194	167.326171397829	394.536884882402	881.866533161360	130.077783732248	314.427750465969	984.104017973793	156.403188038066	333.960066715460	1079.552429357243	58.462467346579	307.164338932762	838.257173657247	1069.265656558617	235.213059993205	919.656173071046	819.707439367845	236.539530539317	967.082794976001	1091.793204624320	774.430022317436	1164.997555363522	928.089375128699	735.597570174730	
57	53.860000000000	727.883554988351	1017.396588098608	530.302493785326	921.050601662568	1421.178987407800	314.331426762536	1037.418305244023	1347.589555405582	465.416774113680	984.549791541583	1437.421399712236	643.474947487333	948.597953854508	1486.932886776066	464.444726948400	956.935352792435	940.197284119489	632.779562598183	924.069127561328	954.701195010370	359.276431070736	977.132758224121	734.366176375516	605.096115272674	886.280699734408	633.504405648199	666.619188718544	954.769508770202	574.665763769584	584.499352845365	945.815448421026	488.606720919250	589.752432987486	1021.735733343154	808.905345541866	401.108009025764	1009.994780548845	681.138294054646	312.566826470869	1119.480014998709	636.213527638217	380.680108721237	1152.247314338006	551.625600544068	369.778386932133	1103.321323020888	472.677211145705	358.527120714754	978.937178053418	394.571380219577	308.050163255920	1004.842306438326	264.482090941281	357.292597618288	914.662689051470	402.499466079572	596.859512221956	838.245972254143	301.262677852819	656.425604753494	877.066981609815	205.409836712009	591.569848901602	737.849025903110	43.091987981254	555.346038772541	907.892116794817	96.420033551022	597.819646266200	818.286835349804	36.764165679866	633.391879241583	1026.911714083604	42.977746291280	630.532144608779	840.997995453246	153.999044157930	393.899158302636	906.477392472411	121.004328449000	313.623622166479	1006.987425205590	153.093940886534	333.293947796515	1108.008291464458	60.978414667257	306.088099251663	833.850448806200	1069.410233797780	236.413374301731	896.785735804017	814.579106655602	238.569428108772	979.130751941434	1091.302672495095	774.208464874286	1187.978966255211	944.559238176607	729.579523092825	
58	53.871071428571	727.530809990692	1017.080440485001	530.686939143715	920.156876931795	1420.812174483969	314.540475569544	1036.921542514185	1347.222923372894	465.269001351325	984.614394717590	1436.962804290390	643.545949049658	948.010129909138	1486.607582485369	464.744240945314	956.629646388258	939.845930454692	632.561896903721	923.346693565373	954.225951849266	358.959905607842	974.681333788547	733.524521661274	604.500741837495	883.143562466948	633.227945404852	666.629988231836	950.751154548734	573.704231822589	584.525711618349	940.877750579862	487.863701345122	589.830566272633	1020.741937246639	809.135473616232	400.697936731833	1009.739669063600	681.245459939233	312.046029966681	1119.252558092704	637.029552994431	380.093931295050	1153.161359994561	553.988110057782	369.179637745937	1107.762629415368	474.270225223713	358.032209958353	988.463131572485	389.497868326851	306.786330379416	1021.259763631309	260.944676640841	356.551797614128	909.210754968296	401.918426826014	596.809218417220	832.200584454016	301.194003315991	656.427373035398	870.237477451883	205.115073156864	591.524503183778	730.119716377450	43.203130365483	555.424075264086	900.130036804597	96.277341230773	597.738387677317	810.511633873323	36.830034692373	633.475297619235	1019.145313140635	42.694740347542	630.608864881333	864.013995084730	140.926652055022	392.467076121879	931.640437545745	112.289694994032	312.403070024818	1029.903324180444	150.097621564356	332.633439744684	1136.256717223381	64.205246036059	305.657614889672	829.191431088941	1069.875469151673	237.148080276112	874.798311293109	811.424590222427	240.692697906048	991.360714816580	1091.292265047520	773.798321628480	1209.604311270651	962.474883205896	723.052157660752	
